<?xml version="1.0" standalone="no"?>
<!DOCTYPE svg PUBLIC "-//W3C//DTD SVG 20010904//EN"
 "http://www.w3.org/TR/2001/REC-SVG-20010904/DTD/svg10.dtd">
<svg version="1.0" xmlns="http://www.w3.org/2000/svg"
 width="700.000000pt" height="700.000000pt" viewBox="0 0 700.000000 700.000000"
 preserveAspectRatio="xMidYMid meet">
<metadata>
Created by potrace 1.14, written by Peter Selinger 2001-2017
</metadata>
<g transform="translate(0.000000,700.000000) scale(0.100000,-0.100000)"
fill="#000000" stroke="none">
<path d="M2436 5690 c-308 -35 -610 -153 -916 -356 -208 -138 -504 -398 -498
-438 6 -42 44 -22 164 86 387 347 736 540 1124 620 150 30 423 31 562 0 403
-88 736 -324 983 -696 268 -404 400 -894 340 -1263 -44 -272 -193 -549 -408
-762 l-75 -73 -73 63 c-331 288 -662 430 -1010 432 l-116 1 -37 165 c-149 655
-400 1326 -638 1706 -52 83 -67 100 -88 100 -42 0 -35 -31 33 -143 210 -350
386 -782 532 -1305 46 -167 125 -495 125 -520 0 -9 -29 -20 -82 -31 -114 -24
-244 -77 -363 -147 -215 -128 -358 -287 -426 -475 -31 -86 -31 -228 0 -307 50
-126 186 -228 351 -263 110 -23 355 -14 516 20 419 88 845 280 1171 528 l102
77 49 -52 c281 -299 557 -756 747 -1240 21 -53 41 -97 44 -97 3 0 28 55 55
122 323 807 625 1412 893 1795 171 245 307 405 627 736 202 209 229 248 181
255 -35 5 -473 -447 -671 -693 -343 -424 -649 -988 -1000 -1842 -43 -106 -81
-193 -84 -193 -3 0 -25 46 -49 103 -174 405 -434 824 -669 1077 l-69 75 86 90
c384 402 511 862 380 1380 -197 776 -732 1339 -1378 1449 -118 20 -312 27
-415 16z m412 -2476 c248 -50 520 -193 732 -383 39 -34 70 -66 70 -71 0 -13
-96 -88 -210 -164 -408 -273 -954 -459 -1340 -458 -186 1 -309 41 -398 129
-68 68 -87 120 -87 233 1 84 5 104 33 170 77 181 250 343 485 455 96 46 249
95 297 95 26 0 29 -4 39 -52 36 -178 80 -509 82 -618 2 -101 10 -125 39 -125
24 0 25 3 28 75 4 95 -20 315 -58 543 -17 98 -27 183 -24 189 9 15 210 3 312
-18z"/>
</g>
</svg>
